<svg xmlns="http://www.w3.org/2000/svg" width="67.316" height="17.2" viewBox="0 0 67.316 17.2"><defs><style>.a{fill:#002f6d;}.b{fill:#00b3e3;}</style></defs><g transform="translate(33.658 8.6)"><g transform="translate(-33.658 -8.6)"><path class="a" d="M353.912,21.012a2.183,2.183,0,0,0,1.659-2.247c0-1.718-1.271-2.565-3.235-2.565H347.3v1.929a5.271,5.271,0,0,1,1.447,2.212,5.654,5.654,0,0,1-1.435,5.729h5.153c2.141,0,3.318-.976,3.318-2.706A2.352,2.352,0,0,0,353.912,21.012Zm-3.506-2.353h1.2c.553,0,.823.224.823.706s-.259.682-.823.682h-1.212Zm1.412,4.929h-1.412V22.2h1.412c.553,0,.824.235.824.706s-.282.682-.835.682Z" transform="translate(-306.442 -14.282)"/><path class="b" d="M9.235,21.206A4.819,4.819,0,0,1,4.106,26.17H0V16.3H4.106A4.755,4.755,0,0,1,9.235,21.206Zm-5.4,2.2a2.054,2.054,0,0,0,2.271-2.2,2.054,2.054,0,0,0-2.271-2.2H3.094v4.4Z" transform="translate(0 -14.371)"/><path class="b" d="M78.6,33.3h3.094v7.859H78.6Z" transform="translate(-69.353 -29.371)"/><path class="b" d="M108.294,33.3l1.271,4.918,1.259-4.918h3.282l-2.623,7.859h-3.859L105,33.3Z" transform="translate(-92.647 -29.371)"/><path class="b" d="M182,33.3h3.094v7.859H182Z" transform="translate(-160.589 -29.371)"/><path class="b" d="M210.947,14.765a2.309,2.309,0,0,1,2.165,1.165V12.4h3.094V22.706h-3.094V21.647a2.309,2.309,0,0,1-2.165,1.165c-1.812,0-3.247-1.494-3.247-4.023S209.135,14.765,210.947,14.765Zm1.035,2.706a1.161,1.161,0,0,0-1.141,1.318c0,.859.494,1.329,1.141,1.329s1.141-.459,1.141-1.318A1.171,1.171,0,0,0,211.982,17.47Z" transform="translate(-183.265 -10.929)"/><path class="b" d="M283.312,40.647a3.776,3.776,0,0,1-4.012-4.023,4.012,4.012,0,0,1,8.023-.071,4.535,4.535,0,0,1-.047.612h-4.953c.047.788.423,1.012.835,1.012a.753.753,0,0,0,.729-.459h3.271A3.771,3.771,0,0,1,283.312,40.647Zm-.965-4.835h1.835a.791.791,0,0,0-.882-.788.886.886,0,0,0-.941.788Z" transform="translate(-246.442 -28.753)"/><path class="a" d="M427.365,41.159H424.27v-1.2a2.76,2.76,0,0,1-2.412,1.259c-1.8,0-2.859-1.329-2.859-3.353V33.3h3.082v4.165a1.11,1.11,0,1,0,2.212,0V33.3h3.094Z" transform="translate(-369.707 -29.371)"/><path class="a" d="M495.906,33.3h3.412L493.47,46.57h-3.388l2.8-5.8L489.6,33.3h3.435l1.482,3.988Z" transform="translate(-432.001 -29.371)"/><circle class="b" cx="1.576" cy="1.576" r="1.576" transform="translate(21.435)"/><circle class="b" cx="1.576" cy="1.576" r="1.576" transform="translate(9.153)"/></g></g></svg>