<svg xmlns="http://www.w3.org/2000/svg" width="16" height="16" viewBox="0 0 16 16"><defs><style>.a{fill:#002f6d;}.b{fill:#fff;}.c{fill:#00b3e3;}</style></defs><g transform="translate(8 8)"><g transform="translate(-8 -8)"><rect class="a" width="16" height="16" rx="3.453" transform="translate(0 0)"/><path class="b" d="M97.7,65.183a1.218,1.218,0,0,0,.928-1.249c0-.953-.709-1.434-1.805-1.434H94.008v.228a3.168,3.168,0,0,1,1.1,2.489,3.078,3.078,0,0,1-.928,2.345l-.177.16v.287h2.885c1.2,0,1.847-.548,1.847-1.51A1.316,1.316,0,0,0,97.7,65.183Zm-1.966-1.316H96.4c.312,0,.456.127.456.4s-.152.38-.456.38h-.666Zm.785,2.75h-.785v-.776h.785c.312,0,.456.135.456.4s-.143.388-.456.388Z" transform="translate(-86.07 -57.256)"/><path class="c" d="M44.963,65.033A2.687,2.687,0,0,1,42.1,67.8H39.8V62.3h2.295A2.655,2.655,0,0,1,44.963,65.033Zm-3.02,1.232a1.232,1.232,0,1,0,0-2.463h-.413v2.455Z" transform="translate(-36.442 -57.073)"/></g></g></svg>