<svg xmlns="http://www.w3.org/2000/svg">
  <defs>
    <style>.icon { display: none; }.icon:target { display: inline; }</style>
  </defs>
  <svg viewBox="0 0 21 18">
    <g id="bar" class="icon">
      <path d="M3,6H21V8H3V6M3,11H21V13H3V11M3,16H21V18H3V16Z"/>
    </g>
  </svg>
  <svg xmlns="http://www.w3.org/2000/svg" class="icon" viewBox="0 0 24 24" id="multiply"><path fill="#727272" d="M13.41,12l6.3-6.29a1,1,0,1,0-1.42-1.42L12,10.59,5.71,4.29A1,1,0,0,0,4.29,5.71L10.59,12l-6.3,6.29a1,1,0,0,0,0,1.42,1,1,0,0,0,1.42,0L12,13.41l6.29,6.3a1,1,0,0,0,1.42,0,1,1,0,0,0,0-1.42Z"></path></svg>
  <svg xmlns="http://www.w3.org/2000/svg" class="icon" viewBox="0 0 24 24" id="minus"><path fill="#727272" d="M19,11H5a1,1,0,0,0,0,2H19a1,1,0,0,0,0-2Z"></path></svg>
  <svg xmlns="http://www.w3.org/2000/svg" class="icon" viewBox="0 0 24 24" id="plus"><path fill="#727272" d="M19,11H13V5a1,1,0,0,0-2,0v6H5a1,1,0,0,0,0,2h6v6a1,1,0,0,0,2,0V13h6a1,1,0,0,0,0-2Z"></path></svg>
  <svg xmlns="http://www.w3.org/2000/svg" class="icon" viewBox="0 0 24 24" id="angle-left-b"><path fill="#000" d="m8.5 12.8 5.7 5.6c.4.4 1 .4 1.4 0 .4-.4.4-1 0-1.4l-4.9-5 4.9-5c.4-.4.4-1 0-1.4-.2-.2-.4-.3-.7-.3-.3 0-.5.1-.7.3l-5.7 5.6c-.4.5-.4 1.1 0 1.6 0-.1 0-.1 0 0z"></path></svg>
  <svg xmlns="http://www.w3.org/2000/svg" class="icon" viewBox="0 0 24 24" id="angle-right-b"><path fill="#000" d="M15.54,11.29,9.88,5.64a1,1,0,0,0-1.42,0,1,1,0,0,0,0,1.41l4.95,5L8.46,17a1,1,0,0,0,0,1.41,1,1,0,0,0,.71.3,1,1,0,0,0,.71-.3l5.66-5.65A1,1,0,0,0,15.54,11.29Z"></path></svg>
  <svg xmlns="http://www.w3.org/2000/svg" class="icon" viewBox="0 0 24 24" id="bars"><path fill="#727272" d="M3,8H21a1,1,0,0,0,0-2H3A1,1,0,0,0,3,8Zm18,8H3a1,1,0,0,0,0,2H21a1,1,0,0,0,0-2Zm0-5H3a1,1,0,0,0,0,2H21a1,1,0,0,0,0-2Z"></path></svg>
  <svg xmlns="http://www.w3.org/2000/svg" class="icon" viewBox="0 0 24 24" id="shield-check"><path fill="#58327a" d="M19.63,3.65a1,1,0,0,0-.84-.2,8,8,0,0,1-6.22-1.27,1,1,0,0,0-1.14,0A8,8,0,0,1,5.21,3.45a1,1,0,0,0-.84.2A1,1,0,0,0,4,4.43v7.45a9,9,0,0,0,3.77,7.33l3.65,2.6a1,1,0,0,0,1.16,0l3.65-2.6A9,9,0,0,0,20,11.88V4.43A1,1,0,0,0,19.63,3.65ZM18,11.88a7,7,0,0,1-2.93,5.7L12,19.77,8.93,17.58A7,7,0,0,1,6,11.88V5.58a10,10,0,0,0,6-1.39,10,10,0,0,0,6,1.39ZM13.54,9.59l-2.69,2.7-.89-.9a1,1,0,0,0-1.42,1.42l1.6,1.6a1,1,0,0,0,1.42,0L15,11a1,1,0,0,0-1.42-1.42Z"></path></svg>
  <svg xmlns="http://www.w3.org/2000/svg" class="icon" data-name="Layer 1" viewBox="0 0 24 24" id="0-plus"><path fill="#58327a" d="M18,5h1V6a1,1,0,0,0,2,0V5h1a1,1,0,0,0,0-2H21V2a1,1,0,0,0-2,0V3H18a1,1,0,0,0,0,2ZM12.5,6h-1a3,3,0,0,0-3,3v6a3,3,0,0,0,3,3h1a3,3,0,0,0,3-3V9A3,3,0,0,0,12.5,6Zm1,9a1,1,0,0,1-1,1h-1a1,1,0,0,1-1-1V9a1,1,0,0,1,1-1h1a1,1,0,0,1,1,1Zm8.1-6a1,1,0,0,0-.78,1.18,9,9,0,1,1-7-7,1,1,0,1,0,.4-2A10.8,10.8,0,0,0,12,1,11,11,0,1,0,23,12a10.8,10.8,0,0,0-.22-2.2A1,1,0,0,0,21.6,9Z"></path></svg>
  <svg xmlns="http://www.w3.org/2000/svg" class="icon" viewBox="0 0 24 24" id="truck"><path fill="#58327a" d="M1,12.5v5a1,1,0,0,0,1,1H3a3,3,0,0,0,6,0h6a3,3,0,0,0,6,0h1a1,1,0,0,0,1-1V5.5a3,3,0,0,0-3-3H11a3,3,0,0,0-3,3v2H6A3,3,0,0,0,3.6,8.7L1.2,11.9a.61.61,0,0,0-.07.14l-.06.11A1,1,0,0,0,1,12.5Zm16,6a1,1,0,1,1,1,1A1,1,0,0,1,17,18.5Zm-7-13a1,1,0,0,1,1-1h9a1,1,0,0,1,1,1v11h-.78a3,3,0,0,0-4.44,0H10Zm-2,6H4L5.2,9.9A1,1,0,0,1,6,9.5H8Zm-3,7a1,1,0,1,1,1,1A1,1,0,0,1,5,18.5Zm-2-5H8v2.78a3,3,0,0,0-4.22.22H3Z"></path></svg>
  <svg xmlns="http://www.w3.org/2000/svg"  class="icon" viewBox="0 0 24 24" id="bed"><path fill="#58327a" d="M7,12.5a3,3,0,1,0-3-3A3,3,0,0,0,7,12.5Zm0-4a1,1,0,1,1-1,1A1,1,0,0,1,7,8.5Zm13-2H12a1,1,0,0,0-1,1v6H3v-8a1,1,0,0,0-2,0v13a1,1,0,0,0,2,0v-3H21v3a1,1,0,0,0,2,0v-9A3,3,0,0,0,20,6.5Zm1,7H13v-5h7a1,1,0,0,1,1,1Z"></path></svg>
  <svg class="icon" id="shopping-cart" data-name="Layer 1" xmlns="http://www.w3.org/2000/svg" viewBox="0 0 24 24"><path fill="#727272" d="M8.5,19A1.5,1.5,0,1,0,10,20.5,1.5,1.5,0,0,0,8.5,19ZM19,16H7a1,1,0,0,1,0-2h8.49121A3.0132,3.0132,0,0,0,18.376,11.82422L19.96143,6.2749A1.00009,1.00009,0,0,0,19,5H6.73907A3.00666,3.00666,0,0,0,3.92139,3H3A1,1,0,0,0,3,5h.92139a1.00459,1.00459,0,0,1,.96142.7251l.15552.54474.00024.00506L6.6792,12.01709A3.00006,3.00006,0,0,0,7,18H19a1,1,0,0,0,0-2ZM17.67432,7l-1.2212,4.27441A1.00458,1.00458,0,0,1,15.49121,12H8.75439l-.25494-.89221L7.32642,7ZM16.5,19A1.5,1.5,0,1,0,18,20.5,1.5,1.5,0,0,0,16.5,19Z"></path></svg>
  <svg class="icon" xmlns="http://www.w3.org/2000/svg" viewBox="0 0 24 24" id="search"><path fill="#727272" d="M21.71,20.29,18,16.61A9,9,0,1,0,16.61,18l3.68,3.68a1,1,0,0,0,1.42,0A1,1,0,0,0,21.71,20.29ZM11,18a7,7,0,1,1,7-7A7,7,0,0,1,11,18Z"></path></svg>
  <svg viewBox="0 0 22 22">
    <g id="qustion" class="icon">
      <path d="M4,2A2,2 0 0,0 2,4V16A2,2 0 0,0 4,18H8V21A1,1 0 0,0 9,22H9.5V22C9.75,22 10,21.9 10.2,21.71L13.9,18H20A2,2 0 0,0 22,16V4C22,2.89 21.1,2 20,2H4M4,4H20V16H13.08L10,19.08V16H4V4M12.19,5.5C11.3,5.5 10.59,5.68 10.05,6.04C9.5,6.4 9.22,7 9.27,7.69C0.21,7.69 6.57,7.69 11.24,7.69C11.24,7.41 11.34,7.2 11.5,7.06C11.7,6.92 11.92,6.85 12.19,6.85C12.5,6.85 12.77,6.93 12.95,7.11C13.13,7.28 13.22,7.5 13.22,7.8C13.22,8.08 13.14,8.33 13,8.54C12.83,8.76 12.62,8.94 12.36,9.08C11.84,9.4 11.5,9.68 11.29,9.92C11.1,10.16 11,10.5 11,11H13C13,10.72 13.05,10.5 13.14,10.32C13.23,10.15 13.4,10 13.66,9.85C14.12,9.64 14.5,9.36 14.79,9C15.08,8.63 15.23,8.24 15.23,7.8C15.23,7.1 14.96,6.54 14.42,6.12C13.88,5.71 13.13,5.5 12.19,5.5M11,12V14H13V12H11Z"/>
    </g>
  </svg>
  <svg viewBox="0 0 46.625336 46.625336">
    <g id="search" class="icon">
      <path d="M21 3C11.602 3 4 10.602 4 20s7.602 17 17 17c3.355 0 6.46-.984 9.094-2.656l12.281 12.281 4.25-4.25L34.5 30.281C36.68 27.421 38 23.88 38 20c0-9.398-7.602-17-17-17zm0 4c7.2 0 13 5.8 13 13s-5.8 13-13 13S8 27.2 8 20 13.8 7 21 7z" fill="#191d21"/>
    </g>
  </svg>
  <svg viewBox="0 0 21 22">
    <g id="shopping-cart" class="icon">
      <path d="M17,18A2,2 0 0,1 19,20A2,2 0 0,1 17,22C15.89,22 15,21.1 15,20C15,18.89 15.89,18 17,18M1,2H4.27L5.21,4H20A1,1 0 0,1 21,5C21,5.17 20.95,5.34 20.88,5.5L17.3,11.97C16.96,12.58 16.3,13 15.55,13H8.1L7.2,14.63L7.17,14.75A0.25,0.25 0 0,0 7.42,15H19V17H7C5.89,17 5,16.1 5,15C5,14.65 5.09,14.32 5.24,14.04L6.6,11.59L3,4H1V2M7,18A2,2 0 0,1 9,20A2,2 0 0,1 7,22C5.89,22 5,21.1 5,20C5,18.89 5.89,18 7,18M16,11L18.78,6H6.14L8.5,11H16Z"/>
    </g>
  </svg>
  <svg viewBox="0 0 22 22">
    <g id="user-circle" class="icon">
      <path d="M12,2A10,10 0 0,0 2,12A10,10 0 0,0 12,22A10,10 0 0,0 22,12A10,10 0 0,0 12,2M7.07,18.28C7.5,17.38 10.12,16.5 12,16.5C13.88,16.5 16.5,17.38 16.93,18.28C15.57,19.36 13.86,20 12,20C10.14,20 8.43,19.36 7.07,18.28M18.36,16.83C16.93,15.09 13.46,14.5 12,14.5C10.54,14.5 7.07,15.09 5.64,16.83C4.62,15.5 4,13.82 4,12C4,7.59 7.59,4 12,4C16.41,4 20,7.59 20,12C20,13.82 19.38,15.5 18.36,16.83M12,6C10.06,6 8.5,7.56 8.5,9.5C8.5,11.44 10.06,13 12,13C13.94,13 15.5,11.44 15.5,9.5C15.5,7.56 13.94,6 12,6M12,11A1.5,1.5 0 0,1 10.5,9.5A1.5,1.5 0 0,1 12,8A1.5,1.5 0 0,1 13.5,9.5A1.5,1.5 0 0,1 12,11Z"/>
    </g>
  </svg>

  <svg xmlns="http://www.w3.org/2000/svg" viewBox="0 0 78.28 66.33" x="0px" y="0px">
    <g id="crystal" class="icon">
      <path d="M74.89,57.7h0s0,0,0,0l-6.61-7.73-.87-1a.4.4,0,0,0-.1-.12.44.44,0,0,0-.49,0L56.55,54,54.94,41.47l-.23-1.81a.42.42,0,0,0-.07-.24.43.43,0,0,0-.36-.22l-14-1.13a.36.36,0,0,0-.39.23l-6.71,11-.33.54c-.22.35-.45.72-.66,1.09h0a.47.47,0,0,0-.07.36.54.54,0,0,0,.07.13.36.36,0,0,0,0,.09l6.36,12H30.43a.43.43,0,0,0-.42.32L28.07,77.22v0a.5.5,0,0,0,0,.21.41.41,0,0,0,0,.08.37.37,0,0,0,.17.18l.06,0h0l10.19,4.75.5.23,1,.45a1.3,1.3,0,0,0,.52.09h8.84a.17.17,0,0,0,.1,0H64c.4,0,.82,0,1.24,0a.74.74,0,0,0,.47-.26l.07-.06,5.61-4.85,0,0L71.5,78a.58.58,0,0,0,.12-.43V72.17a.4.4,0,0,0-.13-.31.52.52,0,0,0-.41-.1l-2.55.36L74.12,60l.27-.6c.18-.39.37-.79.55-1.19v0a.44.44,0,0,0,0-.48Zm-31.7,7.64c-.17-.18-.33-.37-.49-.56-.32-.37-.64-.75-1-1.1l0,0a.38.38,0,0,0-.29-.14l-.09,0H39.55l-6.37-12,10.65-1.93,8.65,26.21Zm-1.65-.56L51.74,76.3c.17.18.32.37.48.55.31.36.62.72,1,1.06L54.51,82c.05.13.09.26.13.39H49.58L39,74.37l-.33-.26-.42-.33Zm-4.2,8.83L29,76.68,30.8,64.39h10Zm.27.82,10.54,7.95h-7.8l-10.74-5ZM53.32,41.11l.42-.39.22-.19,1.81,14.08-.88,25.77-9.9-30c-.05-.13-.09-.27-.13-.4l-.24-.72Zm-9,7.26L40.89,39l12.38,1ZM33.39,50.63l6.29-10.35.48-.79,3.38,9.31Zm40.44,7.16-6.7,2.26.27-9.78ZM57.11,54.64l3-1.5,6.49-3.29-.28,10.07Zm6.76,17.87v0l3-10.9c0-.09,0-.18.08-.26L67,61l6.73-2.27-5.5,11.92L68,71.2l-.48,1Zm-.6,1.18.24-.29,4.3-.31h.1l2.85-.41v4.79l-5.69,4.92H56.15ZM63,72.81Zm3.21-11.94c0,.06,0,.11,0,.16L62.9,72.78l-7,8.52-.21.25.89-25.79c0-.13,0-.25,0-.37v0l9,5.21.26.16.26.15Z" transform="translate(-10.81 -16.93)"></path><path d="M34.05,34l.6.61c.39.4.8.82,1.22,1.21l0,0a.41.41,0,0,0,.29.13h0a.46.46,0,0,0,.28-.13.47.47,0,0,0,.14-.29.42.42,0,0,0-.13-.32L23.37,22.06l-.59-.6c-.4-.4-.81-.82-1.22-1.21l0,0a.43.43,0,0,0-.61.61Z" transform="translate(-10.81 -16.93)"></path><path d="M28.53,50.55a.44.44,0,0,0,0-.87H11.19a.44.44,0,0,0,0,.87H28.53Z" transform="translate(-10.81 -16.93)"></path><path d="M50.82,33a.41.41,0,0,0,.43.42.41.41,0,0,0,.43-.42V19.27c0-.2,0-.41,0-.63,0-.41,0-.84,0-1.26v0a.42.42,0,0,0-.43-.42.41.41,0,0,0-.43.42V31.09c0,.21,0,.42,0,.63,0,.41,0,.84,0,1.27Z" transform="translate(-10.81 -16.93)"></path><path d="M43.37,33.67a.44.44,0,0,0,.42.31h.11a.47.47,0,0,0,.27-.23.42.42,0,0,0,0-.31L41,24.3a.44.44,0,0,0-.53-.29.42.42,0,0,0-.27.22.34.34,0,0,0,0,.31Z" transform="translate(-10.81 -16.93)"></path><path d="M21.35,38.8a.34.34,0,0,0-.31,0,.41.41,0,0,0-.23.27.45.45,0,0,0,.3.53l10,3.54.12,0a.45.45,0,0,0,.19,0,.47.47,0,0,0,.23-.27.44.44,0,0,0-.3-.53Z" transform="translate(-10.81 -16.93)"></path><path d="M65.85,35.5h0a.4.4,0,0,0,.29-.12L79.3,22.25l.61-.6c.4-.4.82-.8,1.21-1.22l0,0a.39.39,0,0,0,.12-.4.5.5,0,0,0-.33-.33.41.41,0,0,0-.4.11L67.41,32.92l-.61.6c-.4.4-.82.8-1.21,1.22l0,0a.42.42,0,0,0-.12.32.45.45,0,0,0,.41.42Z" transform="translate(-10.81 -16.93)"></path><path d="M88.67,49.69H74.3c-.41,0-.84,0-1.26,0h0a.43.43,0,0,0,0,.86H88.67a.43.43,0,0,0,0-.86Z" transform="translate(-10.81 -16.93)"></path><path d="M81,39.05a.34.34,0,0,0-.31,0l-9.13,3.22a.44.44,0,0,0-.29.53.44.44,0,0,0,.41.32l.12,0L81,39.85a.44.44,0,0,0,.3-.53A.47.47,0,0,0,81,39.05Z" transform="translate(-10.81 -16.93)"></path><path d="M58.5,33.87l.12,0a.44.44,0,0,0,.41-.32l3.54-10a.34.34,0,0,0,0-.31.51.51,0,0,0-.27-.23.44.44,0,0,0-.53.3l-3.54,10a.42.42,0,0,0,0,.31A.47.47,0,0,0,58.5,33.87Z" transform="translate(-10.81 -16.93)"></path>
    </g>
  </svg>
  <svg xmlns="http://www.w3.org/2000/svg" xmlns:xlink="http://www.w3.org/1999/xlink" version="1.1" x="0px" y="0px" viewBox="0 0 65 65" enable-background="new 0 0 65 65" xml:space="preserve">
    <g id="secure" class="icon">
      <polygon points="31.2,38.9 30.1,37.7 29,38.8 31.2,41 36,36.3 34.9,35.2  "></polygon><path d="M32.5,31.4c-3.5,0-6.4,2.9-6.4,6.4c0,3.5,2.9,6.4,6.4,6.4c3.5,0,6.4-2.9,6.4-6.4C38.9,34.3,36,31.4,32.5,31.4z M32.5,42.8   c-2.7,0-4.9-2.2-4.9-4.9c0-2.7,2.2-4.9,4.9-4.9c2.7,0,4.9,2.2,4.9,4.9C37.4,40.6,35.2,42.8,32.5,42.8z"></path><path d="M32.5,12.7c-5.6,0-10.2,4.6-10.2,10.2v5.3c-2.3,0.3-4.2,2.3-4.2,4.7v9.8c0,2.6,2.1,4.8,4.8,4.8h19.2c2.6,0,4.8-2.1,4.8-4.8   v-9.8c0-2.4-1.8-4.4-4.2-4.7v-5.3C42.7,17.3,38.1,12.7,32.5,12.7z M37.4,28.2h-9.9v-5.1c0-2.7,2-5,4.6-5.1c1.4-0.1,2.7,0.4,3.7,1.3   c1,0.9,1.6,2.2,1.6,3.6V28.2z M32.5,14.2c4.8,0,8.7,3.9,8.7,8.7v5.2h-2.3v-5.2c0-1.8-0.7-3.5-2-4.7c-1.3-1.2-3-1.8-4.8-1.7   c-3.4,0.2-6,3.1-6,6.6v5.1h-2.3v-5.3C23.8,18.1,27.7,14.2,32.5,14.2z M45.4,32.9h-1.8v1.5h1.9V36h-2.3v1.5h2.3v1.7h-2.3v1.5h2.3   v1.7h-1.9v1.5h1.7c-0.4,1.3-1.6,2.2-3.1,2.2H22.9c-1.4,0-2.6-0.9-3.1-2.2h1.7v-1.5h-1.9v-1.7h2.3v-1.5h-2.3v-1.7h2.3V36h-2.3v-1.7   h1.9v-1.5h-1.8c0-1.8,1.5-3.2,3.2-3.2h19.2C43.9,29.7,45.3,31.1,45.4,32.9z"></path><path d="M12.4,12.9c4.4-4.5,10.2-7.4,16.4-8.2c0.5,1.6,1.9,2.9,3.7,2.9c2.1,0,3.9-1.7,3.9-3.9s-1.7-3.9-3.9-3.9   c-2,0-3.6,1.5-3.8,3.4C22.1,4,15.9,7.1,11.3,11.8L12.4,12.9z M32.5,1.2c1.3,0,2.4,1.1,2.4,2.4c0,1.3-1.1,2.4-2.4,2.4   c-1.3,0-2.4-1.1-2.4-2.4C30.1,2.3,31.2,1.2,32.5,1.2z"></path><path d="M4.1,40.9l1.4-0.4c-0.8-2.6-1.1-5.2-1.1-7.9c0-3.7,0.7-7.4,2.1-10.8c0.3,0.1,0.7,0.1,1,0.1c1.4,0,2.7-0.7,3.4-1.9   c0.5-0.9,0.7-1.9,0.4-2.9c-0.3-1-0.9-1.8-1.8-2.4c-0.6-0.3-1.3-0.5-2-0.5c-1.4,0-2.7,0.7-3.4,1.9C3.7,16.9,3.5,18,3.8,19   C4,19.8,4.5,20.5,5.2,21c-1.5,3.6-2.3,7.5-2.3,11.5C2.9,35.3,3.3,38.2,4.1,40.9z M5.5,16.8c0.4-0.7,1.2-1.2,2.1-1.2   c0.4,0,0.8,0.1,1.2,0.3c0.5,0.3,0.9,0.8,1.1,1.5c0.2,0.6,0.1,1.3-0.2,1.8C9,20.3,7.5,20.7,6.4,20c-0.5-0.3-0.9-0.8-1.1-1.5   C5.1,18,5.2,17.3,5.5,16.8z"></path><path d="M10.1,49.5c0.5-0.5,0.8-1,1-1.7c0.3-1,0.1-2-0.4-3c-0.7-1.2-2-2-3.4-2c-0.7,0-1.3,0.2-1.9,0.5c-0.9,0.5-1.5,1.3-1.8,2.3   s-0.1,2,0.4,3c0.7,1.2,2,2,3.4,2c0.5,0,1-0.1,1.5-0.3c3.9,5.1,9.3,8.9,15.5,10.6l0.4-1.4C19,57.9,13.8,54.3,10.1,49.5z M5.3,47.9   c-0.3-0.6-0.4-1.2-0.2-1.8c0.2-0.6,0.6-1.1,1.1-1.4c0.4-0.2,0.8-0.3,1.2-0.3c0.9,0,1.7,0.5,2.1,1.2c0.3,0.6,0.4,1.2,0.2,1.8   c-0.2,0.6-0.6,1.1-1.1,1.4C7.5,49.5,6,49,5.3,47.9z"></path><path d="M52.4,52.3c-4.4,4.4-10.1,7.2-16.2,8c-0.2-0.6-0.5-1.2-1-1.7c-0.7-0.7-1.7-1.2-2.8-1.2c-2.1,0-3.9,1.7-3.9,3.8   c0,2.1,1.7,3.9,3.8,3.9h0c2,0,3.6-1.5,3.8-3.4c6.5-0.8,12.5-3.8,17.2-8.5L52.4,52.3z M32.5,63.7v0.7V63.7c-1.3,0-2.4-1.1-2.4-2.4   c0-1.3,1.1-2.4,2.4-2.4c0.6,0,1.2,0.3,1.7,0.7c0.4,0.5,0.7,1.1,0.7,1.7C34.9,62.7,33.8,63.7,32.5,63.7z"></path><path d="M55,15.7c-0.5,0.5-0.8,1-1,1.7c-0.3,1-0.2,2,0.3,3c0.7,1.2,2,2,3.4,2c0.7,0,1.3-0.2,1.9-0.5c1.9-1,2.5-3.4,1.5-5.3   c-0.7-1.2-2-2-3.4-2c-0.5,0-1,0.1-1.4,0.3c-4.1-5.5-10-9.5-16.6-11.1l-0.4,1.5C45.6,6.8,51.2,10.5,55,15.7z M59.8,17.3   c0.6,1.1,0.2,2.6-0.9,3.2c-1.1,0.6-2.6,0.2-3.2-0.9c-0.3-0.6-0.4-1.2-0.2-1.8c0.2-0.6,0.6-1.1,1.1-1.4c0.4-0.2,0.8-0.3,1.2-0.3   C58.6,16.1,59.4,16.6,59.8,17.3z"></path><path d="M59.7,44.2c1.6-3.7,2.4-7.7,2.4-11.7c0-2.5-0.3-5.1-1-7.5l-1.5,0.4c0.6,2.3,0.9,4.7,0.9,7.1c0,3.8-0.8,7.5-2.3,11   c-0.3-0.1-0.7-0.1-1.1-0.1c-1.4,0-2.6,0.7-3.3,1.9c-1.1,1.8-0.5,4.2,1.3,5.3c0.6,0.4,1.3,0.5,2,0.5c1.4,0,2.6-0.7,3.3-1.9   c0.5-0.9,0.7-1.9,0.4-2.9C60.9,45.5,60.4,44.8,59.7,44.2z M59.3,48.5c-0.6,1.1-2.2,1.5-3.3,0.8c-1.1-0.7-1.5-2.1-0.8-3.3   c0.4-0.7,1.2-1.2,2.1-1.2c0.4,0,0.8,0.1,1.2,0.3c0.5,0.3,0.9,0.8,1.1,1.5C59.8,47.3,59.7,47.9,59.3,48.5z"></path>
    </g>
  </svg>
  <svg xmlns="http://www.w3.org/2000/svg" viewBox="0 0 512 512" x="0px" y="0px">
    <g id="delight" class="icon">
      <path d="M256,354.47a22.89,22.89,0,0,1-4.44-.44c-10.22-2-37.43-10-69.21-39.74-22.6-21.12-34.79-56.67-34.79-79.39,0-39.45,26.08-69.19,60.66-69.19A63.17,63.17,0,0,1,256,188.07a63.17,63.17,0,0,1,47.77-22.36c34.58,0,60.66,29.74,60.66,69.19,0,22.72-12.19,58.27-34.79,79.39C297.86,344,270.66,352,260.44,354A22.12,22.12,0,0,1,256,354.47ZM208.23,177.71c-28.19,0-48.66,24-48.66,57.19,0,20.2,10.86,51.81,31,70.63,30.36,28.38,56.18,35.29,63.37,36.73a10.36,10.36,0,0,0,4.15,0c7.19-1.44,33-8.35,63.36-36.73,20.13-18.82,31-50.43,31-70.63,0-33.14-20.47-57.19-48.66-57.19-14.91,0-29.21,6.86-39.23,18.84a11.06,11.06,0,0,1-17.08,0C237.44,184.57,223.14,177.71,208.23,177.71Z"></path><path d="M241,109.19a6,6,0,0,1-6-5.61l-5.67-85.82a6,6,0,1,1,12-.8L247,102.79a6,6,0,0,1-5.59,6.38Z"></path><path d="M270,109.19a4.89,4.89,0,0,1-.54,0,6,6,0,0,1-5.44-6.51l4.1-45.95a6,6,0,1,1,11.95,1.06l-4.1,46A6,6,0,0,1,270,109.19Z"></path><path d="M182.9,127.92a6,6,0,0,1-5.31-3.21l-40.1-76.1A6,6,0,0,1,148.11,43l40.1,76.1a6,6,0,0,1-5.31,8.8Z"></path><path d="M209.21,115.64a6,6,0,0,1-5.68-4.06L188.58,67.93A6,6,0,0,1,199.94,64l14.94,43.66a6,6,0,0,1-5.67,7.94Z"></path><path d="M137.43,168.66a6,6,0,0,1-3.71-1.29L66.14,114.16a6,6,0,1,1,7.43-9.43l67.58,53.21a6,6,0,0,1-3.72,10.72Z"></path><path d="M156.83,147.12a6,6,0,0,1-4.4-1.92L121,111.4a6,6,0,0,1,8.79-8.17L161.22,137a6,6,0,0,1-4.39,10.09Z"></path><path d="M112.48,224.37a5.78,5.78,0,0,1-1.48-.19L27.62,203.06a6,6,0,0,1,2.94-11.64L114,212.55a6,6,0,0,1-1.47,11.82Z"></path><path d="M121.43,196.8a5.88,5.88,0,0,1-2.35-.48l-42.45-18.1a6,6,0,0,1,4.71-11l42.44,18.1a6,6,0,0,1-2.35,11.52Z"></path><path d="M27.56,300a6,6,0,0,1-1-11.92l84.77-14.61a6,6,0,1,1,2,11.82L28.58,299.94A6,6,0,0,1,27.56,300Z"></path><path d="M63.16,257.31a6,6,0,0,1-.09-12l46.13-.73a6,6,0,1,1,.19,12l-46.13.73Z"></path><path d="M65.54,389.07a6,6,0,0,1-3.34-11l71.49-47.83a6,6,0,0,1,6.67,10L68.87,388.05A5.92,5.92,0,0,1,65.54,389.07Z"></path><path d="M80.69,335.57a6,6,0,0,1-2.53-11.44L120,304.7a6,6,0,1,1,5,10.88L83.21,335A6,6,0,0,1,80.69,335.57Z"></path><path d="M136.43,455a5.93,5.93,0,0,1-3.19-.93,6,6,0,0,1-1.88-8.27L177.22,373a6,6,0,0,1,10.15,6.39l-45.86,72.78A6,6,0,0,1,136.43,455Z"></path><path d="M128.52,399.93A6,6,0,0,1,124,390l30.32-34.78a6,6,0,0,1,9.05,7.89L133,397.87A6,6,0,0,1,128.52,399.93Z"></path><path d="M228,486.33a6.33,6.33,0,0,1-.86-.06,6,6,0,0,1-5.08-6.8l12.29-85.13a6,6,0,0,1,11.88,1.71L234,481.19A6,6,0,0,1,228,486.33Z"></path><path d="M198.4,439.27a6,6,0,0,1-5.74-7.76l13.56-44.1a6,6,0,0,1,11.47,3.52L204.13,435A6,6,0,0,1,198.4,439.27Z"></path><path d="M324.43,477.73a6,6,0,0,1-5.77-4.37l-23.4-82.77a6,6,0,1,1,11.55-3.26l23.4,82.77a6,6,0,0,1-4.15,7.4A5.73,5.73,0,0,1,324.43,477.73Z"></path><path d="M278.22,446.79a6,6,0,0,1-5.94-5.28l-5.55-45.8a6,6,0,1,1,11.91-1.45l5.55,45.81a6,6,0,0,1-6,6.72Z"></path><path d="M409,430.66a6,6,0,0,1-4.62-2.16l-55-66.1a6,6,0,0,1,9.23-7.68l55,66.1a6,6,0,0,1-.78,8.45A5.93,5.93,0,0,1,409,430.66Z"></path><path d="M354.23,421.19a6,6,0,0,1-5.15-2.92l-23.7-39.59a6,6,0,1,1,10.3-6.16l23.69,39.58a6,6,0,0,1-5.14,9.09Z"></path><path d="M467.14,353.26a6,6,0,0,1-2.65-.62l-77.17-38a6,6,0,1,1,5.31-10.76l77.16,38a6,6,0,0,1-2.65,11.39Z"></path><path d="M413.23,366.89a6,6,0,0,1-3.45-1.09L372,339.27a6,6,0,0,1,6.9-9.82L416.68,356a6,6,0,0,1-3.45,10.91Z"></path><path d="M488.76,258.9h-.23l-85.95-3.33a6,6,0,1,1,.46-12L489,246.91a6,6,0,0,1-.23,12Z"></path><path d="M445.06,293.28a6.6,6.6,0,0,1-1.16-.11l-45.28-8.88a6,6,0,0,1,2.31-11.78l45.28,8.88a6,6,0,0,1-1.15,11.89Z"></path><path d="M390.26,195.83A6,6,0,0,1,388,184.26l79.87-31.92a6,6,0,0,1,4.46,11.15L392.48,195.4A5.8,5.8,0,0,1,390.26,195.83Z"></path><path d="M399.21,223.4a6,6,0,0,1-1.34-11.85l45-10.3a6,6,0,1,1,2.68,11.69l-45,10.31A6.18,6.18,0,0,1,399.21,223.4Z"></path><path d="M354.49,146.36a6,6,0,0,1-4.3-10.18l60-61.65a6,6,0,1,1,8.6,8.37l-60,61.64A6,6,0,0,1,354.49,146.36Z"></path><path d="M373.89,167.9a6,6,0,0,1-3.61-10.8l36.9-27.7a6,6,0,1,1,7.2,9.59L377.49,166.7A6,6,0,0,1,373.89,167.9Z"></path><path d="M301.7,115.71a6.09,6.09,0,0,1-2.08-.37,6,6,0,0,1-3.55-7.7l29.72-80.72a6,6,0,0,1,11.26,4.15l-29.72,80.72A6,6,0,0,1,301.7,115.71Z"></path><path d="M328.17,127.5a5.89,5.89,0,0,1-2.91-.76,6,6,0,0,1-2.33-8.16l22.44-40.31a6,6,0,1,1,10.48,5.83l-22.43,40.32A6,6,0,0,1,328.17,127.5Z"></path><circle cx="275.13" cy="40.35" r="6.65"></circle><circle cx="188.51" cy="50.63" r="6.65"></circle><circle cx="113.57" cy="95.25" r="6.65"></circle><circle cx="63.25" cy="166.49" r="6.65"></circle><circle cx="46.27" cy="252.04" r="6.65"></circle><circle cx="65.54" cy="337.1" r="6.65"></circle><circle cx="117.75" cy="406.97" r="6.65"></circle><circle cx="193.86" cy="449.57" r="6.65"></circle><circle cx="280.72" cy="457.52" r="6.65"></circle><circle cx="363.3" cy="429.46" r="6.65"></circle><circle cx="427.33" cy="370.23" r="6.65"></circle><circle cx="461.74" cy="290.08" r="6.65"></circle><circle cx="460.57" cy="202.87" r="6.65"></circle><circle cx="424.02" cy="123.67" r="6.65"></circle><circle cx="358.43" cy="66.19" r="6.65"></circle>
    </g>
  </svg>

  <svg id="Capa_1" x="0px" y="0px" viewBox="0 0 483.1 483.1" style="enable-background:new 0 0 483.1 483.1;" xml:space="preserve">
   <g id="shopping-bag" class="icon"> <g> <path d="M434.55,418.7l-27.8-313.3c-0.5-6.2-5.7-10.9-12-10.9h-58.6c-0.1-52.1-42.5-94.5-94.6-94.5s-94.5,42.4-94.6,94.5h-58.6 c-6.2,0-11.4,4.7-12,10.9l-27.8,313.3c0,0.4,0,0.7,0,1.1c0,34.9,32.1,63.3,71.5,63.3h243c39.4,0,71.5-28.4,71.5-63.3 C434.55,419.4,434.55,419.1,434.55,418.7z M241.55,24c38.9,0,70.5,31.6,70.6,70.5h-141.2C171.05,55.6,202.65,24,241.55,24z M363.05,459h-243c-26,0-47.2-17.3-47.5-38.8l26.8-301.7h47.6v42.1c0,6.6,5.4,12,12,12s12-5.4,12-12v-42.1h141.2v42.1 c0,6.6,5.4,12,12,12s12-5.4,12-12v-42.1h47.6l26.8,301.8C410.25,441.7,389.05,459,363.05,459z"/></g><g></g><g></g><g></g><g></g><g></g><g></g><g></g><g></g><g></g><g></g><g></g><g></g><g></g><g></g><g></g></g></svg>
  <svg fill="#191d21" viewBox="0 0 24 24">
  <g id="trash" class="icon"><path d="M9,3V4H4V6H5V19A2,2 0 0,0 7,21H17A2,2 0 0,0 19,19V6H20V4H15V3H9M7,6H17V19H7V6M9,8V17H11V8H9M13,8V17H15V8H13Z"/></g></svg>
  <svg width="24" height="24" viewBox="0 0 24 24">
    <g id="multiply" class="icon"><path d="M19,6.41L17.59,5L12,10.59L6.41,5L5,6.41L10.59,12L5,17.59L6.41,19L12,13.41L17.59,19L19,17.59L13.41,12L19,6.41Z"/></g></svg>
  <svg fill="currentColor" width="24" height="24" viewBox="0 0 24 24">
    <g id="minus" class="icon"><path d="M19,13H5V11H19V13Z"/></g></svg>
  <svg fill="currentColor" width="24" height="24" viewBox="0 0 24 24">
    <g id="plus" class="icon"><path d="M19,13H13V19H11V13H5V11H11V5H13V11H19V13Z"/></g></svg>
</svg>
